<?xml version="1.0" standalone="no"?>
<!DOCTYPE svg PUBLIC "-//W3C//DTD SVG 20010904//EN"
 "http://www.w3.org/TR/2001/REC-SVG-20010904/DTD/svg10.dtd">
<svg version="1.0" xmlns="http://www.w3.org/2000/svg"
 width="256.000000pt" height="256.000000pt" viewBox="0 0 256.000000 256.000000"
 preserveAspectRatio="xMidYMid meet">
<metadata>
Created by potrace 1.14, written by Peter Selinger 2001-2017
</metadata>
<g transform="translate(0.000000,256.000000) scale(0.100000,-0.100000)"
fill="#000000" stroke="none">
<path d="M0 1280 l0 -1280 1280 0 1280 0 0 1280 0 1280 -1280 0 -1280 0 0
-1280z m870 671 l-25 -19 27 -7 c36 -9 53 2 36 23 -12 14 -10 14 10 3 19 -10
22 -20 22 -75 0 -61 -1 -64 -30 -76 -25 -10 -34 -10 -55 4 -22 15 -25 23 -25
76 0 54 2 61 28 74 37 21 42 19 12 -3z m187 -98 c-2 -16 -4 -3 -4 27 0 30 2
43 4 28 2 -16 2 -40 0 -55z m46 70 c-7 -2 -19 -2 -25 0 -7 3 -2 5 12 5 14 0
19 -2 13 -5z m102 -33 c7 -24 6 -24 -8 -6 -14 19 -15 18 -27 -18 -6 -21 -14
-35 -17 -32 -3 3 3 26 12 51 19 47 27 48 40 5z m107 3 l23 -38 6 40 c6 38 6
37 7 -15 l1 -55 -28 35 -29 35 -5 -35 c-3 -27 -4 -23 -5 18 -1 28 0 52 2 52 2
0 15 -17 28 -37z m126 -15 l-2 -53 -3 47 c-3 33 -9 48 -21 51 -12 3 -11 5 6 6
20 1 22 -3 20 -51z m91 24 c-10 -16 -10 -26 -1 -46 7 -15 8 -26 2 -26 -16 0
-23 50 -11 77 7 14 14 23 17 20 3 -3 0 -14 -7 -25z m61 -17 c0 -30 -10 -55
-21 -55 -5 0 -3 11 3 25 8 19 8 31 -1 52 -11 23 -10 25 3 13 9 -7 16 -23 16
-35z m109 14 c21 45 31 38 31 -21 -1 -52 -1 -52 -14 -23 -10 24 -13 26 -19 12
-9 -24 -24 -21 -33 6 -7 20 -9 19 -15 -13 -6 -31 -7 -28 -8 20 l-1 55 22 -34
22 -34 15 32z m-602 -25 c-3 -3 -12 -4 -19 -1 -8 3 -5 6 6 6 11 1 17 -2 13 -5z
m127 -30 c5 -13 3 -14 -6 -7 -7 6 -20 13 -28 16 -10 4 -8 6 6 6 12 1 25 -6 28
-15z m-381 -121 c-68 -2 -178 -2 -245 0 -68 1 -13 3 122 3 135 0 190 -2 123
-3z m685 0 c-64 -2 -172 -2 -240 0 -68 1 -15 3 117 3 132 0 187 -2 123 -3z
m675 0 c-68 -2 -178 -2 -245 0 -68 1 -13 3 122 3 135 0 190 -2 123 -3z m-1290
-45 c-2 -5 -89 -8 -193 -8 -104 0 -191 3 -193 8 -3 4 84 7 193 7 109 0 196 -3
193 -7z m582 -8 l-100 -6 89 -2 c77 -2 87 -4 76 -17 -18 -22 -302 -22 -320 0
-10 12 0 15 72 18 l83 3 -92 2 c-50 1 -94 5 -96 10 -3 4 83 5 191 2 176 -4
186 -5 97 -10z m705 0 l-75 -6 68 -2 c61 -2 67 -4 53 -17 -21 -21 -308 -22
-325 -1 -10 12 -7 15 21 19 30 3 29 4 -9 5 -23 1 -44 5 -46 10 -3 4 83 5 191
2 151 -3 179 -5 122 -10z m-1903 4 c-3 -3 -12 -4 -19 -1 -8 3 -5 6 6 6 11 1
17 -2 13 -5z m683 -24 c0 -28 -3 -30 -35 -30 -26 0 -33 3 -29 15 4 8 17 18 30
21 13 3 21 10 18 15 -3 5 0 9 5 9 6 0 11 -13 11 -30z m680 0 c0 -28 -3 -30
-35 -30 -26 0 -33 3 -29 15 4 8 17 18 30 21 13 3 21 10 18 15 -3 5 0 9 5 9 6
0 11 -13 11 -30z m680 0 c0 -28 -3 -30 -35 -30 -26 0 -33 3 -29 15 4 8 17 18
30 21 13 3 21 10 18 15 -3 5 0 9 5 9 6 0 11 -13 11 -30z m-2040 -10 c0 -17 -7
-20 -42 -20 l-41 0 23 20 c13 11 31 20 42 20 11 0 18 -7 18 -20z m584 5 c-28
-21 -306 -22 -324 0 -11 13 8 15 166 15 158 0 176 -2 158 -15z m-584 -45 c0
-5 -15 -11 -32 -11 l-33 -2 30 -6 c18 -3 31 -13 33 -23 2 -15 -5 -18 -43 -18
-38 0 -45 3 -43 18 2 9 8 20 13 24 6 5 5 8 -2 8 -7 0 -13 5 -13 10 0 6 20 10
45 10 25 0 45 -4 45 -10z m680 -25 c0 -34 -1 -35 -40 -35 -39 0 -40 1 -40 35
0 34 1 35 40 35 39 0 40 -1 40 -35z m680 0 c0 -34 -1 -35 -40 -35 -39 0 -40 1
-40 35 0 34 1 35 40 35 39 0 40 -1 40 -35z m680 0 c0 -34 -1 -35 -40 -35 -39
0 -39 1 -38 35 1 34 3 35 40 35 37 0 38 -1 38 -35z m-2040 -69 c0 -23 -17 -36
-46 -36 -19 0 -34 2 -34 4 0 2 -3 11 -6 20 -5 13 2 16 40 16 25 0 46 -2 46 -4z
m680 -16 c0 -17 -7 -20 -40 -20 -33 0 -40 3 -40 20 0 17 7 20 40 20 33 0 40
-3 40 -20z m680 0 c0 -17 -7 -20 -40 -20 -33 0 -40 3 -40 20 0 17 7 20 40 20
33 0 40 -3 40 -20z m680 0 c0 -17 -7 -20 -40 -20 -33 0 -40 3 -40 20 0 17 7
20 40 20 33 0 40 -3 40 -20z m-2040 -40 c0 -5 -21 -10 -46 -10 -27 0 -43 4
-39 10 3 6 24 10 46 10 21 0 39 -4 39 -10z m680 0 c0 -5 -18 -10 -40 -10 -22
0 -40 5 -40 10 0 6 18 10 40 10 22 0 40 -4 40 -10z m680 0 c0 -5 -18 -10 -40
-10 -22 0 -40 5 -40 10 0 6 18 10 40 10 22 0 40 -4 40 -10z m680 0 c0 -5 -18
-10 -40 -10 -22 0 -40 5 -40 10 0 6 18 10 40 10 22 0 40 -4 40 -10z m-2042
-55 c1 -35 -4 -39 -45 -38 -7 1 -13 -4 -13 -10 0 -29 -25 18 -26 48 -2 35 -1
35 41 35 41 0 42 -1 43 -35z m682 -5 c0 -39 0 -39 -32 -33 -22 4 -29 3 -24 -5
5 -8 2 -10 -8 -6 -11 4 -16 19 -16 45 0 39 0 39 40 39 40 0 40 0 40 -40z m680
3 c0 -37 -1 -38 -40 -40 l-40 -3 0 40 c0 40 0 40 40 40 40 0 40 0 40 -37z
m680 -1 c0 -37 -1 -38 -31 -34 -25 4 -30 2 -24 -9 8 -12 6 -12 -8 0 -10 8 -17
28 -17 47 0 33 1 34 40 34 40 0 40 0 40 -38z m-2059 -71 c-8 -5 -20 -7 -28 -4
-21 8 -15 13 15 13 20 0 23 -3 13 -9z m619 -11 l23 -20 -196 0 c-109 0 -197 2
-197 4 0 3 7 12 16 20 13 13 43 16 173 16 144 0 160 -2 181 -20z m65 10 c-3
-5 -12 -7 -20 -3 -21 7 -19 13 6 13 11 0 18 -4 14 -10z m618 -10 c17 -20 16
-20 -185 -20 l-201 0 23 20 c21 18 37 20 184 20 149 0 163 -2 179 -20z m62 10
c-3 -5 -12 -7 -20 -3 -21 7 -19 13 6 13 11 0 18 -4 14 -10z m680 0 c-3 -5 -12
-7 -20 -3 -21 7 -19 13 6 13 11 0 18 -4 14 -10z m-1410 -50 c-8 -13 -365 -13
-385 0 -10 6 53 10 188 10 133 0 201 -3 197 -10z m680 0 c-8 -13 -365 -13
-385 0 -10 6 53 10 188 10 133 0 201 -3 197 -10z m-1318 -26 c-3 -3 -12 -4
-19 -1 -8 3 -5 6 6 6 11 1 17 -2 13 -5z m526 -1 c-46 -2 -120 -2 -165 0 -46 1
-9 3 82 3 91 0 128 -2 83 -3z m164 1 c-3 -3 -12 -4 -19 -1 -8 3 -5 6 6 6 11 1
17 -2 13 -5z m526 -1 c-45 -2 -122 -2 -170 0 -48 1 -11 3 82 3 94 0 133 -2 88
-3z m154 1 c-3 -3 -12 -4 -19 -1 -8 3 -5 6 6 6 11 1 17 -2 13 -5z m680 0 c-3
-3 -12 -4 -19 -1 -8 3 -5 6 6 6 11 1 17 -2 13 -5z m-2030 -47 c4 -27 3 -28
-38 -25 -23 2 -44 8 -46 14 -6 19 28 45 55 42 19 -2 26 -10 29 -31z m683 3 c0
-28 -2 -30 -40 -30 -36 0 -40 3 -40 24 0 27 11 34 53 35 24 1 27 -3 27 -29z
m680 -1 c0 -27 -2 -29 -40 -29 -36 0 -40 3 -40 24 0 26 10 32 53 34 23 1 27
-3 27 -29z m680 1 c0 -28 -2 -30 -40 -30 -41 0 -47 8 -30 41 7 12 21 19 40 19
27 0 30 -3 30 -30z m-2040 -70 c0 -17 -7 -20 -43 -20 -36 0 -43 3 -44 20 -2
17 4 20 43 20 37 0 44 -3 44 -20z m680 0 c0 -17 -7 -20 -40 -20 -33 0 -40 3
-40 20 0 17 7 20 40 20 33 0 40 -3 40 -20z m680 -15 c0 -34 -1 -35 -40 -35
-39 0 -40 1 -40 35 0 34 1 35 40 35 39 0 40 -1 40 -35z m680 15 c0 -17 -7 -20
-40 -20 -33 0 -40 3 -40 20 0 17 7 20 40 20 33 0 40 -3 40 -20z m-2040 -40 c0
-5 -20 -10 -45 -10 -25 0 -45 5 -45 10 0 6 20 10 45 10 25 0 45 -4 45 -10z
m680 0 c0 -5 -18 -10 -40 -10 -22 0 -40 5 -40 10 0 6 18 10 40 10 22 0 40 -4
40 -10z m1360 0 c0 -5 -18 -10 -40 -10 -22 0 -40 5 -40 10 0 6 18 10 40 10 22
0 40 -4 40 -10z m-2042 -45 c2 -23 -2 -25 -38 -25 -42 0 -54 9 -44 34 4 11 19
16 43 16 32 0 37 -3 39 -25z m682 0 c0 -22 -4 -25 -40 -25 -36 0 -40 3 -40 25
0 23 4 25 40 25 36 0 40 -2 40 -25z m680 0 c0 -22 -4 -25 -40 -25 -36 0 -40 3
-40 25 0 23 4 25 40 25 36 0 40 -2 40 -25z m680 0 c0 -22 -4 -25 -40 -25 -36
0 -40 3 -40 25 0 23 4 25 40 25 36 0 40 -2 40 -25z m-2045 -55 c4 -6 -10 -10
-34 -10 -23 0 -41 5 -41 10 0 6 15 10 34 10 19 0 38 -4 41 -10z m685 0 c0 -5
-18 -10 -40 -10 -22 0 -40 5 -40 10 0 6 18 10 40 10 22 0 40 -4 40 -10z m680
0 c0 -5 -18 -10 -40 -10 -22 0 -40 5 -40 10 0 6 18 10 40 10 22 0 40 -4 40
-10z m680 0 c0 -5 -18 -10 -40 -10 -22 0 -40 5 -40 10 0 6 18 10 40 10 22 0
40 -4 40 -10z m-2040 -40 c0 -16 -7 -20 -35 -20 -24 0 -37 6 -45 20 -10 19 -8
20 35 20 38 0 45 -3 45 -20z m680 0 c0 -15 -7 -20 -28 -20 -27 0 -52 15 -52
32 0 4 18 8 40 8 33 0 40 -3 40 -20z m680 0 c0 -15 -7 -20 -28 -20 -27 0 -52
15 -52 32 0 4 18 8 40 8 33 0 40 -3 40 -20z m680 0 c0 -15 -7 -20 -28 -20 -27
0 -52 15 -52 32 0 4 18 8 40 8 33 0 40 -3 40 -20z m-1532 -17 c-42 -2 -114 -2
-160 0 -46 1 -11 3 77 3 88 0 125 -2 83 -3z m680 0 c-42 -2 -114 -2 -160 0
-46 1 -11 3 77 3 88 0 125 -2 83 -3z m-1188 -22 c0 -19 -20 -22 -36 -7 -14 15
-13 16 10 16 14 0 26 -4 26 -9z m600 -1 c11 -7 5 -10 -25 -11 -22 -1 -66 -3
-98 -5 -32 -1 -65 -5 -73 -8 -8 -3 -12 -2 -9 4 8 13 -56 13 -89 0 -17 -6 -26
-6 -26 0 0 6 -9 10 -21 10 -11 0 -17 5 -14 10 8 13 335 13 355 0z m80 -10 c0
-11 -2 -20 -3 -20 -2 0 -12 9 -22 20 -18 19 -17 20 3 20 15 0 22 -6 22 -20z
m600 10 c21 -13 20 -13 -213 -11 -96 1 -146 5 -142 11 8 13 335 13 355 0z m80
-10 c0 -22 -25 -18 -34 6 -3 9 1 14 14 14 13 0 20 -7 20 -20z m680 0 c0 -11
-2 -20 -3 -20 -2 0 -12 9 -22 20 -18 19 -17 20 3 20 15 0 22 -6 22 -20z
m-1595 -30 c101 0 190 -3 199 -6 47 -18 -6 -24 -220 -24 -184 0 -235 3 -232
13 3 6 17 13 31 15 15 2 27 9 28 15 0 9 2 8 6 0 3 -10 51 -13 188 -13z m498
13 c-7 -2 -21 -2 -30 0 -10 3 -4 5 12 5 17 0 24 -2 18 -5z m160 0 c-7 -2 -19
-2 -25 0 -7 3 -2 5 12 5 14 0 19 -2 13 -5z m221 -19 c47 -18 -6 -24 -219 -24
-215 0 -248 3 -228 23 8 9 426 9 447 1z m-772 -224 c-6 -56 -19 -59 -24 -5 -2
35 0 45 12 45 12 0 15 -9 12 -40z m113 18 l8 -23 4 23 c8 40 23 23 22 -25 0
-36 -3 -43 -9 -28 l-9 20 -1 -20 c-1 -19 -1 -19 -14 -2 -14 18 -14 18 -19 0
-3 -10 -5 3 -6 30 -1 49 12 63 24 25z m98 15 c-7 -2 -13 -11 -13 -19 0 -8 6
-14 13 -14 8 0 8 -3 -2 -9 -12 -8 -12 -12 -2 -25 11 -13 11 -16 -3 -16 -12 0
-16 10 -16 45 0 36 3 45 18 44 10 0 12 -3 5 -6z m68 -44 c-11 -24 -20 -39 -20
-33 -1 16 29 87 35 82 2 -3 -4 -25 -15 -49z m81 42 c-8 -4 -13 -14 -12 -22 4
-28 0 -49 -10 -49 -5 0 -10 18 -10 40 0 35 3 40 23 40 16 0 18 -3 9 -9z m70
-36 c-5 -54 -18 -51 -24 5 -3 31 0 40 12 40 12 0 14 -10 12 -45z m68 23 l9
-23 0 23 c1 12 6 22 11 22 6 0 10 -21 9 -47 0 -36 -3 -43 -9 -28 -7 16 -9 17
-9 3 -1 -11 -7 -15 -21 -11 -15 4 -20 14 -20 37 0 29 6 46 17 46 2 0 8 -10 13
-22z m99 -25 l-2 -48 -6 40 c-7 38 -5 55 5 55 2 0 3 -21 3 -47z m87 11 c1 -18
-2 -37 -6 -44 -8 -14 -30 -5 -30 11 0 6 4 8 8 5 5 -3 9 8 9 24 0 16 -4 27 -9
24 -4 -3 -8 0 -8 6 0 6 8 10 17 8 12 -2 18 -14 19 -34z m72 -6 c-2 -29 -8 -43
-17 -43 -8 0 -16 6 -19 13 -2 7 2 10 10 7 11 -4 15 2 15 24 0 22 -4 28 -15 23
-10 -3 -13 -1 -8 6 4 7 14 12 22 12 12 0 14 -10 12 -42z m76 15 c-13 -52 -25
-71 -18 -29 4 27 1 42 -8 47 -9 6 -6 9 10 9 19 0 22 -4 16 -27z"/>
<path d="M840 1905 c0 -9 5 -15 11 -13 6 2 11 8 11 13 0 5 -5 11 -11 13 -6 2
-11 -4 -11 -13z"/>
<path d="M906 1911 c-3 -5 1 -11 9 -15 9 -3 15 0 15 9 0 16 -16 20 -24 6z"/>
<path d="M856 1881 c-3 -5 1 -11 9 -15 9 -3 15 0 15 9 0 16 -16 20 -24 6z"/>
<path d="M890 1875 c0 -9 6 -12 15 -9 8 4 12 10 9 15 -8 14 -24 10 -24 -6z"/>
<path d="M840 1839 c0 -10 10 -23 21 -30 27 -14 69 3 69 28 0 14 -9 18 -45 19
-37 1 -45 -2 -45 -17z"/>
<path d="M1598 1583 c6 -2 18 -2 25 0 6 3 1 5 -13 5 -14 0 -19 -2 -12 -5z"/>
<path d="M1603 1103 c9 -2 25 -2 35 0 9 3 1 5 -18 5 -19 0 -27 -2 -17 -5z"/>
</g>
</svg>
